<svg xmlns="http://www.w3.org/2000/svg" width="137.428" height="119.18" viewBox="0 0 137.428 119.18"><defs><style>.a{fill:#fff;}</style></defs><g transform="translate(-118.786 -338)"><g transform="translate(-769.214 676)"><path class="a" d="M364.743,421.5l9.971,20.522h-2.825l-2.847-6.048h-8.56l-2.847,6.048h-2.822Zm0,5.193-3.484,7.265h6.973Zm-18.584-4.42h2.607V442.02h-2.607Zm-17.765,19.749V422.272H331v17.511h8.278v2.238Zm-19.727,0V422.272h11.558v2.155h-8.953v5.661h8.953v2.183h-8.953v7.569h8.953v2.181Zm-17.619-17.76v6.6h1.988q3.057,0,4.094-.71a2.768,2.768,0,0,0,1.034-2.471,3.06,3.06,0,0,0-1.065-2.661q-1.062-.76-4.063-.76Zm-2.543,17.76V422.272h5.149a16.854,16.854,0,0,1,3.226.222,5.039,5.039,0,0,1,1.806.764A4.532,4.532,0,0,1,300.2,425.1a5.947,5.947,0,0,1,.542,2.555,4.545,4.545,0,0,1-1.5,3.687,6.719,6.719,0,0,1-4.411,1.262h-.466l8.369,9.418H299.42l-8-9.418h-.369v9.418Zm-25.927-19.749h2.636v12.292a5.947,5.947,0,0,0,1.416,4.4,7.729,7.729,0,0,0,8.881,0,5.952,5.952,0,0,0,1.417-4.4V422.272h2.635v12.292q0,4-2.115,5.994t-6.383,1.988q-4.252,0-6.372-1.988t-2.115-5.994Zm-15.362-.773,9.97,20.522h-2.827l-2.846-6.048h-8.56l-2.846,6.048h-2.821Zm0,5.193-3.486,7.265H250.7Z" transform="translate(650.714 -674.41)"/><path class="a" d="M356.571,455.59v-6.774H363.1v.9h-5.4v1.892H361v.891H357.7v2.154h5.448v.932Zm-7.634-5.855h-4.7v4.909h4.7v-1.693l1.13.236v.8a1.855,1.855,0,0,1-.326,1.272,1.757,1.757,0,0,1-1.246.332h-3.8a1.784,1.784,0,0,1-1.259-.336,1.813,1.813,0,0,1-.333-1.268v-3.57a1.8,1.8,0,0,1,.333-1.263,1.783,1.783,0,0,1,1.259-.337h3.8a1.762,1.762,0,0,1,1.246.332,1.847,1.847,0,0,1,.326,1.268v.642l-1.13.213ZM328.8,455.59l3.7-6.774h1.213l3.766,6.774h-1.246l-.863-1.666h-4.587l-.866,1.666Zm2.458-2.534h3.649l-1.828-3.466Zm-13.18,2.534v-6.774h5.462a1.581,1.581,0,0,1,1.1.309,1.322,1.322,0,0,1,.335,1.005v1.512a1.315,1.315,0,0,1-.335,1,1.581,1.581,0,0,1-1.1.31h-4.332v2.639Zm5.021-5.9h-3.891v2.365H323.1a.8.8,0,0,0,.573-.16.782.782,0,0,0,.158-.551V450.4a.782.782,0,0,0-.158-.551.8.8,0,0,0-.573-.16m-13.022.041h-4.793v1.889h4.268a1.768,1.768,0,0,1,1.242.333,1.8,1.8,0,0,1,.335,1.264v.762a1.832,1.832,0,0,1-.329,1.273,1.756,1.756,0,0,1-1.248.334H305.6a1.771,1.771,0,0,1-1.254-.336,1.837,1.837,0,0,1-.332-1.271V453.8l1.049-.245v1.09h5.043v-2.033h-4.255a1.741,1.741,0,0,1-1.249-.338,1.845,1.845,0,0,1-.325-1.268v-.588a1.835,1.835,0,0,1,.325-1.264,1.746,1.746,0,0,1,1.249-.337h3.606a1.8,1.8,0,0,1,1.25.33,1.555,1.555,0,0,1,.345,1.156v.142l-.973.275Zm-20.6.679a1.811,1.811,0,0,1,.331-1.26,1.777,1.777,0,0,1,1.261-.338h4.682a1.758,1.758,0,0,1,1.249.335,1.819,1.819,0,0,1,.329,1.263v3.569a1.827,1.827,0,0,1-.329,1.273,1.759,1.759,0,0,1-1.249.334h-4.682a1.761,1.761,0,0,1-1.261-.341,1.824,1.824,0,0,1-.331-1.266Zm1.131,4.23h5.605v-4.909h-5.605Zm-14.573.946v-6.774h5.462a1.583,1.583,0,0,1,1.1.309,1.326,1.326,0,0,1,.334,1.005v1.512a1.318,1.318,0,0,1-.334,1,1.583,1.583,0,0,1-1.1.31h-.993l3.092,2.639h-1.68l-2.757-2.639h-1.993v2.639Zm5.021-5.9h-3.89v2.379h3.89a.832.832,0,0,0,.578-.154.754.754,0,0,0,.153-.538v-.989a.754.754,0,0,0-.157-.54.812.812,0,0,0-.574-.158m-17.816,5.9v-6.774h6.527v.9h-5.4v1.892h3.3v.891h-3.3v2.154h5.447v.932Zm-14.4,0,3.7-6.774h1.214l3.765,6.774h-1.244l-.864-1.666h-4.587l-.867,1.666Zm2.459-2.534h3.649l-1.828-3.466Z" transform="translate(650.714 -674.41)"/></g><g transform="translate(-118.5 1.59)"><path class="a" d="M269.526,392.9l34.581-18.11-10.24-.033,10.7-18.521,0-19.823Z"/><path class="a" d="M342.477,392.9l-34.58-18.11,10.24-.033-10.7-18.521,0-19.823Z"/></g></g></svg>