<svg xmlns="http://www.w3.org/2000/svg" width="97.553" height="25.052" viewBox="0 0 97.553 25.052"><defs><style>.a{fill:#fff;}</style></defs><g transform="translate(-498.587 -420.722)"><path class="a" d="M498.587,445.774l15.337-8.031-4.541-.015,4.745-8.214,0-8.791Z"/><path class="a" d="M551.362,445.774l-15.336-8.031,4.541-.015-4.745-8.214v-8.791Z" transform="translate(-20.421)"/><g transform="translate(535.191 425.82)"><path class="a" d="M636.177,432.012l4.421,9.1h-1.253l-1.263-2.682h-3.8l-1.262,2.682h-1.252Zm0,2.3-1.545,3.222h3.092Zm-8.242-1.96h1.156v8.758h-1.156Zm-7.879,8.758v-8.758h1.156v7.766h3.671v.992Zm-8.749,0v-8.758h5.126v.956h-3.971v2.511h3.971v.968h-3.971v3.356h3.971v.967Zm-7.814-7.876v2.927h.881a3.53,3.53,0,0,0,1.816-.315,1.226,1.226,0,0,0,.458-1.1,1.357,1.357,0,0,0-.472-1.18,3.347,3.347,0,0,0-1.8-.337Zm-1.128,7.876v-8.758h2.284a7.49,7.49,0,0,1,1.431.1,2.25,2.25,0,0,1,.8.339,2.009,2.009,0,0,1,.67.816,2.635,2.635,0,0,1,.24,1.133,2.014,2.014,0,0,1-.667,1.635,2.975,2.975,0,0,1-1.956.56h-.207l3.712,4.176h-1.468l-3.549-4.176h-.163v4.176Zm-11.5-8.758h1.169v5.451a2.639,2.639,0,0,0,.628,1.949,3.426,3.426,0,0,0,3.939,0,2.64,2.64,0,0,0,.629-1.949v-5.451H598.4v5.451a3.483,3.483,0,0,1-.938,2.659,4.978,4.978,0,0,1-5.657,0,3.483,3.483,0,0,1-.938-2.659Zm-6.814-.343,4.422,9.1h-1.254l-1.263-2.682h-3.8l-1.262,2.682h-1.251Zm0,2.3-1.546,3.222H585.6Z" transform="translate(-579.649 -432.012)"/><path class="a" d="M638.78,461.845v-3h2.895v.4h-2.393v.839h1.461v.4h-1.461v.956H641.7v.413Zm-3.386-2.6H633.31v2.177h2.084v-.751l.5.1v.354a.821.821,0,0,1-.144.564.776.776,0,0,1-.553.148h-1.683a.791.791,0,0,1-.559-.149.8.8,0,0,1-.147-.562V459.55a.576.576,0,0,1,.706-.709H635.2a.781.781,0,0,1,.553.147.82.82,0,0,1,.144.562v.285l-.5.094Zm-8.93,2.6,1.641-3h.538l1.67,3h-.552l-.383-.739h-2.034l-.385.739Zm1.091-1.124h1.618l-.811-1.537Zm-5.845,1.124v-3h2.422a.7.7,0,0,1,.487.137.588.588,0,0,1,.149.446v.671a.583.583,0,0,1-.149.443.7.7,0,0,1-.487.137h-1.921v1.17Zm2.227-2.615h-1.726v1.049h1.726a.357.357,0,0,0,.254-.071.351.351,0,0,0,.07-.245v-.418a.35.35,0,0,0-.07-.245.357.357,0,0,0-.254-.071m-5.776.019h-2.126v.838h1.893a.783.783,0,0,1,.551.148.8.8,0,0,1,.149.561v.338a.81.81,0,0,1-.146.564.777.777,0,0,1-.554.149h-1.753a.786.786,0,0,1-.556-.149.815.815,0,0,1-.147-.564v-.082l.466-.108v.484h2.237v-.9h-1.887a.773.773,0,0,1-.555-.15.82.82,0,0,1-.144-.562v-.261a.817.817,0,0,1,.144-.561.778.778,0,0,1,.555-.149h1.6a.8.8,0,0,1,.554.146.691.691,0,0,1,.153.513v.063l-.431.121Zm-9.134.3a.8.8,0,0,1,.146-.559.79.79,0,0,1,.56-.149h2.077a.781.781,0,0,1,.554.148.808.808,0,0,1,.146.56v1.583a.807.807,0,0,1-.146.564.776.776,0,0,1-.554.149h-2.077a.781.781,0,0,1-.56-.151.809.809,0,0,1-.146-.561Zm.5,1.876h2.486v-2.177h-2.486Zm-6.463.419v-3h2.423a.7.7,0,0,1,.487.137.59.59,0,0,1,.148.446v.671a.585.585,0,0,1-.148.443.7.7,0,0,1-.487.137h-.441l1.372,1.17h-.745l-1.223-1.17h-.884v1.17Zm2.227-2.615h-1.725v1.055h1.725a.368.368,0,0,0,.257-.068.334.334,0,0,0,.068-.238v-.438a.335.335,0,0,0-.07-.24.36.36,0,0,0-.254-.07m-7.9,2.615v-3h2.895v.4h-2.393v.839h1.461v.4h-1.461v.956h2.416v.413Zm-6.385,0,1.641-3h.538l1.67,3H594.3l-.383-.739h-2.035l-.384.739Zm1.091-1.124h1.618l-.811-1.537Z" transform="translate(-585.878 -446.726)"/></g></g></svg>